<svg width="80" height="84" viewBox="0 0 80 84" fill="none" xmlns="http://www.w3.org/2000/svg">
<path d="M48.4656 62.9179L45.1187 62.5078V41.3273C45.1187 40.8351 44.9055 40.3593 44.5281 40.0476C44.2164 39.7851 43.8391 39.6539 43.4453 39.6539C43.3469 39.6539 43.2648 39.6703 43.1664 39.6703L31.7969 41.5734C30.993 41.7046 30.4023 42.4101 30.4023 43.2304V46.8398C30.4023 47.7585 31.1406 48.4968 32.0594 48.5132L35.2586 48.546V62.5078L31.9117 62.9179C31.075 63.0164 30.4516 63.7382 30.4516 64.575V68.3812C30.4516 69.2999 31.2062 70.0546 32.125 70.0546H48.2687C49.1875 70.0546 49.9422 69.2999 49.9422 68.3812V64.575C49.9258 63.7382 49.3023 63.0164 48.4656 62.9179ZM48.2523 68.3976H32.125V64.5914L36.9484 64.0007V46.889L32.0922 46.8398V43.2304L43.4453 41.3273V63.9843L48.2523 64.575V68.3976ZM58.7359 34.1578C57.5219 34.125 56.4719 33.2882 56.1766 32.1234C55.4875 29.4328 53.0758 27.5625 50.3031 27.5625C49.45 27.5625 48.6133 27.7429 47.8258 28.1039C47.4812 28.2679 47.1039 28.35 46.7101 28.35C46.6117 28.35 46.5133 28.3499 46.4148 28.3335L60.6391 3.69136L74.3055 11.5828L60.9836 34.6664C60.2781 34.3546 59.5234 34.1742 58.7359 34.1578ZM55.7172 0.83667L59.1953 2.85464L44.8891 27.6445C44.807 27.5625 44.7086 27.4804 44.643 27.382C43.8226 26.414 42.7398 25.7249 41.5422 25.4132L55.7172 0.83667ZM24.2828 0.83667L38.4742 25.4132C37.2766 25.7249 36.1773 26.3976 35.3734 27.382C35.2914 27.4804 35.2094 27.5625 35.1273 27.6445L20.8047 2.85464L24.2828 0.83667ZM19.0164 34.6499L5.69452 11.5664L19.3609 3.67495L33.5851 28.3171C33.4867 28.3335 33.3883 28.3335 33.2898 28.3335C32.8961 28.3335 32.5351 28.2515 32.1742 28.0875C31.3867 27.7265 30.55 27.546 29.6969 27.546C26.9242 27.546 24.5125 29.4164 23.8234 32.107C23.5281 33.2718 22.4781 34.1085 21.2641 34.1414C20.493 34.1742 19.7219 34.3546 19.0164 34.6499ZM4.25077 12.4031L17.5891 35.5195C17.2609 35.782 16.9656 36.0937 16.6867 36.4382C15.9156 37.4062 15.4726 38.5546 15.3906 39.7359L0.772644 14.421L4.25077 12.4031ZM66.6601 52.3851C65.4789 53.9437 65.4789 56.1093 66.6601 57.6679C68.3008 59.8335 67.5953 62.9671 65.1672 64.214C63.4281 65.1164 62.493 67.0523 62.8703 68.9718C63.4117 71.646 61.4101 74.1398 58.6867 74.2218C56.718 74.271 55.0445 75.6164 54.5523 77.5195C53.8797 80.1609 50.9922 81.5554 48.5148 80.4234C46.7266 79.6195 44.6266 80.0953 43.3633 81.6046C41.6078 83.6882 38.4086 83.6882 36.6531 81.6046C35.3898 80.1117 33.2898 79.6195 31.5016 80.4234C29.0242 81.539 26.1367 80.1445 25.4641 77.5195C24.9719 75.6164 23.2984 74.271 21.3297 74.2218C18.6062 74.1562 16.6047 71.646 17.1461 68.9718C17.5398 67.0523 16.6047 65.1 14.8492 64.214C12.4211 62.9671 11.7156 59.8499 13.3562 57.6679C14.5375 56.1093 14.5375 53.9437 13.3562 52.3851C11.7156 50.2195 12.4211 47.0859 14.8492 45.839C16.5883 44.9367 17.5234 43.0007 17.1461 41.0812C16.6047 38.407 18.6062 35.8968 21.3297 35.8312C23.282 35.782 24.9719 34.4367 25.4641 32.5335C26.1367 29.8921 29.0242 28.4976 31.518 29.6296C33.3062 30.4335 35.4062 29.9578 36.6695 28.4484C38.425 26.3648 41.6242 26.3648 43.3797 28.4484C44.643 29.9414 46.743 30.4335 48.5312 29.6296C51.0086 28.514 53.8961 29.9085 54.5687 32.5335C55.0609 34.4367 56.7344 35.782 58.7031 35.8312C61.4266 35.8968 63.4281 38.407 62.8867 41.0812C62.493 43.0007 63.4445 44.9531 65.1836 45.839C67.5789 47.0859 68.3008 50.2195 66.6601 52.3851ZM64.6094 39.7359C64.5109 38.5382 64.068 37.3898 63.2969 36.4382C63.018 36.0937 62.7227 35.7984 62.3945 35.5195L75.7328 12.4031L79.2109 14.4046L64.6094 39.7359ZM40 32.8453C27.7773 32.8453 17.8187 42.7874 17.8187 55.0265C17.8187 67.2656 27.7773 77.1914 40 77.1914C52.2226 77.1914 62.1812 67.2492 62.1812 55.0101C62.1812 42.771 52.2226 32.8453 40 32.8453ZM40 75.5343C28.6797 75.5343 19.4922 66.3468 19.4922 55.0265C19.4922 43.7062 28.6633 34.5187 40 34.5187C51.3367 34.5187 60.5078 43.7062 60.5078 55.0265C60.5078 66.3468 51.3203 75.5343 40 75.5343Z" fill="white"/>
</svg>
