<svg width="40" height="41" viewBox="0 0 40 41" fill="none" xmlns="http://www.w3.org/2000/svg">
<path d="M7.41483 21.981L4.90077 24.497C4.77468 24.6233 4.76711 24.8224 4.87689 24.9631C5.59912 25.8888 5.59912 27.1966 4.87689 28.1223C4.76711 28.2631 4.77468 28.4622 4.90077 28.5883L6.0123 29.7007C6.12884 29.8174 6.30814 29.8319 6.44886 29.7462C6.9289 29.4538 7.65739 29.503 8.04465 29.8912C8.43054 30.278 8.48133 31.0086 8.19046 31.4895C8.10518 31.6305 8.11988 31.81 8.23629 31.9264L9.4842 33.1753C9.60055 33.2917 9.77942 33.3065 9.92008 33.2212C10.4 32.9304 11.1274 32.9812 11.5134 33.3681C11.8987 33.7543 11.9502 34.4826 11.6611 34.9636C11.5763 35.1047 11.5912 35.284 11.7075 35.4004L12.8207 36.5144C12.9463 36.6402 13.1441 36.6478 13.2843 36.5386C14.2025 35.8234 15.4945 35.8212 16.4151 36.5321C16.5552 36.6404 16.7523 36.6323 16.8776 36.5069L35.4607 17.909C35.5868 17.7828 35.5943 17.5836 35.4845 17.443C34.7623 16.5172 34.7623 15.2094 35.4845 14.2837C35.5943 14.143 35.5868 13.9438 35.4607 13.8177L34.348 12.7042C34.2315 12.5876 34.0511 12.5719 33.9119 12.6601C33.4245 12.9687 32.772 12.9102 32.3472 12.4844C31.9229 12.0591 31.8641 11.4061 32.1708 10.9177C32.2586 10.778 32.2427 10.5972 32.1261 10.4805L30.8759 9.22935C30.7596 9.11293 30.5797 9.09712 30.4405 9.18475C29.9534 9.49157 29.3025 9.43246 28.8785 9.00744C28.455 8.58291 28.3956 7.93151 28.7004 7.4434C28.7876 7.30373 28.7716 7.12338 28.6553 7.00697L27.5408 5.89159C27.4151 5.76588 27.2173 5.75825 27.0771 5.8674C26.1589 6.58262 24.8669 6.58486 23.9464 5.87391C23.8062 5.76563 23.6091 5.77375 23.4838 5.8991L8.71869 20.6761" stroke="white" stroke-width="1.5" stroke-miterlimit="10" stroke-linecap="round" stroke-linejoin="round"/>
<path d="M29.7838 13.849L25.107 9.17216C24.6629 8.72809 23.943 8.72809 23.499 9.17216C23.0549 9.61623 23.0549 10.3362 23.499 10.7802L30.6035 17.8847C31.0476 18.3287 31.7675 18.3287 32.2115 17.8847C32.6556 17.4406 32.6556 16.7207 32.2115 16.2767L31.0913 15.1565" stroke="white" stroke-width="1.5" stroke-miterlimit="10" stroke-linecap="round" stroke-linejoin="round"/>
<path d="M14.5346 23.0002L10.5013 27.0335C10.2591 27.2757 10.2591 27.6684 10.5013 27.9106L15.4131 32.8224C15.6552 33.0646 16.048 33.0646 16.2902 32.8224L26.6535 22.459C26.8957 22.2168 26.8957 21.8241 26.6535 21.5819L21.7418 16.6702C21.4996 16.428 21.1068 16.428 20.8647 16.6702L16.8313 20.7035" stroke="white" stroke-width="1.5" stroke-miterlimit="10" stroke-linecap="round" stroke-linejoin="round"/>
<path d="M14.4855 28.8381L22.6693 20.6543" stroke="white" stroke-width="1.5" stroke-miterlimit="10" stroke-linecap="round" stroke-linejoin="round"/>
<path d="M17.8945 27.8618L21.6928 24.0635" stroke="white" stroke-width="1.5" stroke-miterlimit="10" stroke-linecap="round" stroke-linejoin="round"/>
<path d="M14.227 19.7993L15.0033 20.0625C15.15 20.1122 15.3117 20.0866 15.4359 19.994L16.0928 19.5037C16.4054 19.2705 16.8497 19.4969 16.8448 19.8869L16.8343 20.7065C16.8323 20.8614 16.9067 21.0073 17.0331 21.0967L17.7023 21.57C18.0208 21.7952 17.9428 22.2878 17.5703 22.4036L16.7876 22.6469C16.6397 22.6928 16.5239 22.8087 16.4779 22.9565L16.2346 23.7392C16.1188 24.1117 15.6263 24.1897 15.4011 23.8713L14.9278 23.2021C14.8384 23.0756 14.6924 23.0013 14.5376 23.0032L13.718 23.0137C13.328 23.0187 13.1015 22.5743 13.3348 22.2617L13.825 21.6048C13.9177 21.4807 13.9433 21.3189 13.8935 21.1722L13.6303 20.396C13.505 20.0266 13.8576 19.674 14.227 19.7993Z" stroke="white" stroke-width="1.5" stroke-miterlimit="10" stroke-linecap="round" stroke-linejoin="round"/>
<ellipse cx="20.5242" cy="11.5477" rx="0.465153" ry="0.465153" fill="white"/>
<ellipse cx="21.8545" cy="12.8778" rx="0.465153" ry="0.465153" fill="white"/>
<ellipse cx="23.1848" cy="14.2081" rx="0.465153" ry="0.465153" fill="white"/>
<ellipse cx="24.515" cy="15.5382" rx="0.465153" ry="0.465153" fill="white"/>
<ellipse cx="25.8453" cy="16.8687" rx="0.465153" ry="0.465153" fill="white"/>
<ellipse cx="27.1755" cy="18.1988" rx="0.465153" ry="0.465153" fill="white"/>
<ellipse cx="28.5058" cy="19.5291" rx="0.465153" ry="0.465153" fill="white"/>
<ellipse cx="29.8361" cy="20.8594" rx="0.465153" ry="0.465153" fill="white"/>
<path d="M16.6868 17.2706L17.9863 15.9712" stroke="white" stroke-width="1.5" stroke-miterlimit="10" stroke-linecap="round" stroke-linejoin="round"/>
<path d="M9.80249 24.1552L11.1019 22.8557" stroke="white" stroke-width="1.5" stroke-miterlimit="10" stroke-linecap="round" stroke-linejoin="round"/>
</svg>
