<svg width="581" height="357" viewBox="0 0 581 357" fill="none" xmlns="http://www.w3.org/2000/svg">
<mask id="mask0_4605_297" style="mask-type:alpha" maskUnits="userSpaceOnUse" x="0" y="9" width="581" height="329">
<path d="M20 9.5H561C571.77 9.5 580.5 18.2304 580.5 29V318C580.5 328.77 571.77 337.5 561 337.5H20C9.23045 337.5 0.5 328.77 0.5 318V29C0.5 18.2305 9.23045 9.5 20 9.5Z" fill="#4A3AFF" stroke="#EFF0F7"/>
</mask>
<g mask="url(#mask0_4605_297)">
<path opacity="0.2" d="M211.582 9.98776C211.582 21.6103 213.906 33.1191 218.422 43.8569C222.938 54.5948 229.557 64.3514 237.901 72.5698C246.245 80.7882 256.151 87.3074 267.053 91.7552C277.955 96.203 289.64 98.4922 301.44 98.4922C313.241 98.4922 324.926 96.2029 335.828 91.7552C346.73 87.3074 356.636 80.7882 364.98 72.5698C373.324 64.3514 379.943 54.5948 384.459 43.8569C388.974 33.1191 391.299 21.6103 391.299 9.98772L301.44 9.98776L211.582 9.98776Z" fill="white"/>
<path opacity="0.1" d="M210.773 156.189C210.773 169.82 208.048 183.318 202.751 195.911C197.455 208.505 189.692 219.947 179.906 229.586C170.12 239.225 158.502 246.871 145.716 252.087C132.93 257.303 119.226 259.988 105.386 259.988C91.5464 259.988 77.8422 257.303 65.056 252.087C52.2698 246.871 40.652 239.225 30.8659 229.586C21.0798 219.947 13.317 208.505 8.02079 195.911C2.72458 183.318 -0.00134523 169.82 -0.00134089 156.189L105.386 156.189H210.773Z" fill="white"/>
<rect opacity="0.1" x="391.273" y="98.0117" width="177.64" height="180.36" transform="rotate(90 391.273 98.0117)" fill="white"/>
<path opacity="0.07" d="M201.656 349.859L302.622 253.137L391.175 163.196L391.175 349.859L201.656 349.859Z" fill="white"/>
<ellipse opacity="0.07" cx="485.839" cy="266.508" rx="93" ry="94.4227" transform="rotate(90 485.839 266.508)" fill="white"/>
<rect opacity="0.2" x="580.789" y="-12.0781" width="186.664" height="189.522" transform="rotate(90 580.789 -12.0781)" fill="white"/>
<path opacity="0.2" d="M558.531 9L469.438 94.349L391.298 173.714L391.298 8.99999L558.531 9Z" fill="white"/>
</g>
</svg>
