<svg width="264" height="330" viewBox="0 0 264 330" fill="none" xmlns="http://www.w3.org/2000/svg">
<path opacity="0.1" d="M187 3.05176e-05C187 12.6069 184.582 25.0904 179.883 36.7376C175.184 48.3849 168.297 58.9678 159.614 67.8823C150.932 76.7967 140.625 83.868 129.281 88.6924C117.937 93.5169 105.779 96 93.5 96C81.2214 96 69.063 93.5169 57.7191 88.6924C46.3751 83.868 36.0678 76.7967 27.3855 67.8822C18.7032 58.9678 11.8161 48.3849 7.11725 36.7376C2.41844 25.0903 -1.52588e-05 12.6069 -1.52588e-05 0L93.5 3.05176e-05L187 3.05176e-05Z" fill="white"/>
<rect opacity="0.1" x="187" y="100" width="163" height="168" transform="rotate(90 187 100)" fill="white"/>
<path opacity="0.07" d="M19 330L108.501 241.394L187 159L187 330L19 330Z" fill="white"/>
<ellipse opacity="0.07" cx="270.244" cy="247.11" rx="82.8873" ry="83.662" transform="rotate(90 270.244 247.11)" fill="white"/>
<rect opacity="0.2" x="355.457" y="-0.00390625" width="165.775" height="168.873" transform="rotate(90 355.457 -0.00390625)" fill="white"/>
<path opacity="0.2" d="M355.457 -0.00390625L265.491 85.8948L186.584 165.771L186.584 -0.00391352L355.457 -0.00390625Z" fill="white"/>
</svg>
