<svg width="421" height="602" viewBox="0 0 421 602" fill="none" xmlns="http://www.w3.org/2000/svg">
<ellipse cx="167.573" cy="502.6" rx="99.3969" ry="83.3529" transform="rotate(90 167.573 502.6)" fill="#5A2DFF" fill-opacity="0.1"/>
<ellipse cx="336.898" cy="301.107" rx="99.9505" ry="83.8172" transform="rotate(90 336.898 301.107)" fill="#5A2DFF" fill-opacity="0.1"/>
<path opacity="0.1" d="M84.2227 101.206C84.2227 114.331 86.3906 127.329 90.6029 139.455C94.8151 151.582 100.989 162.6 108.772 171.881C116.555 181.163 125.795 188.525 135.964 193.548C146.134 198.571 157.033 201.156 168.04 201.156C179.047 201.156 189.946 198.571 200.115 193.548C210.284 188.525 219.524 181.163 227.308 171.881C235.091 162.6 241.265 151.582 245.477 139.455C249.689 127.329 251.857 114.331 251.857 101.206L168.04 101.206L84.2227 101.206Z" fill="#5A2DFF"/>
<path opacity="0.1" d="M0.000183105 401.23C11.0502 401.23 21.992 398.635 32.2008 393.592C42.4097 388.55 51.6857 381.159 59.4992 371.841C67.3127 362.524 73.5108 351.462 77.7394 339.288C81.9681 327.115 84.1445 314.067 84.1445 300.89C84.1445 287.713 81.9681 274.665 77.7394 262.491C73.5108 250.317 67.3127 239.256 59.4992 229.938C51.6857 220.621 42.4097 213.23 32.2008 208.187C21.9919 203.144 11.0501 200.549 0.000145505 200.549L0.000175749 300.89L0.000183105 401.23Z" fill="#5A2DFF"/>
<rect opacity="0.2" x="252.457" y="200.613" width="200.614" height="168.234" transform="rotate(90 252.457 200.613)" fill="#5A2DFF"/>
<path d="M420.691 401.23L331.066 505.182L252.459 601.845L252.459 401.23L420.691 401.23Z" fill="#5A2DFF" fill-opacity="0.15"/>
<path d="M252.457 200.613L342.082 96.662L420.689 -0.000867359L420.689 200.613L252.457 200.613Z" fill="#5A2DFF" fill-opacity="0.15"/>
</svg>
